<mxfile host="app.diagrams.net" modified="2024-01-29T13:52:11.021Z" agent="Mozilla/5.0 (Macintosh; Intel Mac OS X 10_15_7) AppleWebKit/537.36 (KHTML, like Gecko) Chrome/120.0.0.0 Safari/537.36" etag="68dDiVYTbaI3KqTHZr5B" version="23.0.2" type="device">
  <diagram name="Page-1" id="CYjfZ-PvGCktW-f5Uqiv">
    <mxGraphModel dx="901" dy="653" grid="1" gridSize="10" guides="1" tooltips="1" connect="1" arrows="1" fold="1" page="1" pageScale="1" pageWidth="827" pageHeight="1169" math="0" shadow="0">
      <root>
        <mxCell id="0" />
        <mxCell id="1" parent="0" />
        <mxCell id="85vyCIxWiE6cIkOSBBJF-1" value="" style="rounded=0;whiteSpace=wrap;html=1;" parent="1" vertex="1">
          <mxGeometry x="178.5" y="170" width="473" height="530" as="geometry" />
        </mxCell>
        <mxCell id="85vyCIxWiE6cIkOSBBJF-2" value="admin" style="shape=umlActor;verticalLabelPosition=bottom;verticalAlign=top;html=1;outlineConnect=0;" parent="1" vertex="1">
          <mxGeometry x="710" y="270" width="70" height="140" as="geometry" />
        </mxCell>
        <mxCell id="85vyCIxWiE6cIkOSBBJF-3" value="user" style="shape=umlActor;verticalLabelPosition=bottom;verticalAlign=top;html=1;outlineConnect=0;" parent="1" vertex="1">
          <mxGeometry x="70" y="280" width="70" height="140" as="geometry" />
        </mxCell>
        <mxCell id="85vyCIxWiE6cIkOSBBJF-10" value="DevFix App" style="text;html=1;strokeColor=none;fillColor=none;align=center;verticalAlign=middle;whiteSpace=wrap;rounded=0;" parent="1" vertex="1">
          <mxGeometry x="355" y="170" width="120" height="30" as="geometry" />
        </mxCell>
        <mxCell id="85vyCIxWiE6cIkOSBBJF-14" value="" style="endArrow=none;html=1;rounded=0;exitX=0;exitY=0.5;exitDx=0;exitDy=0;entryX=1;entryY=0.5;entryDx=0;entryDy=0;" parent="1" source="85vyCIxWiE6cIkOSBBJF-12" target="85vyCIxWiE6cIkOSBBJF-13" edge="1">
          <mxGeometry width="50" height="50" relative="1" as="geometry">
            <mxPoint x="370" y="420" as="sourcePoint" />
            <mxPoint x="420" y="370" as="targetPoint" />
          </mxGeometry>
        </mxCell>
        <mxCell id="85vyCIxWiE6cIkOSBBJF-13" value="choisir type reparation" style="rounded=1;whiteSpace=wrap;html=1;" parent="1" vertex="1">
          <mxGeometry x="537" y="240" width="96" height="30" as="geometry" />
        </mxCell>
        <mxCell id="85vyCIxWiE6cIkOSBBJF-15" value="" style="endArrow=none;html=1;rounded=0;entryX=0;entryY=0.5;entryDx=0;entryDy=0;exitX=1;exitY=0.3333333333333333;exitDx=0;exitDy=0;exitPerimeter=0;" parent="1" source="85vyCIxWiE6cIkOSBBJF-3" target="85vyCIxWiE6cIkOSBBJF-11" edge="1">
          <mxGeometry width="50" height="50" relative="1" as="geometry">
            <mxPoint x="370" y="420" as="sourcePoint" />
            <mxPoint x="420" y="370" as="targetPoint" />
          </mxGeometry>
        </mxCell>
        <mxCell id="85vyCIxWiE6cIkOSBBJF-16" value="" style="endArrow=none;html=1;rounded=0;entryX=1;entryY=0.5;entryDx=0;entryDy=0;exitX=0;exitY=0.3333333333333333;exitDx=0;exitDy=0;exitPerimeter=0;" parent="1" source="85vyCIxWiE6cIkOSBBJF-2" target="85vyCIxWiE6cIkOSBBJF-19" edge="1">
          <mxGeometry width="50" height="50" relative="1" as="geometry">
            <mxPoint x="150" y="337" as="sourcePoint" />
            <mxPoint x="260" y="265" as="targetPoint" />
          </mxGeometry>
        </mxCell>
        <mxCell id="85vyCIxWiE6cIkOSBBJF-17" value="" style="endArrow=none;html=1;rounded=0;exitX=0;exitY=0.5;exitDx=0;exitDy=0;entryX=1;entryY=0.5;entryDx=0;entryDy=0;" parent="1" source="85vyCIxWiE6cIkOSBBJF-11" target="85vyCIxWiE6cIkOSBBJF-12" edge="1">
          <mxGeometry width="50" height="50" relative="1" as="geometry">
            <mxPoint x="200" y="255" as="sourcePoint" />
            <mxPoint x="571" y="255" as="targetPoint" />
          </mxGeometry>
        </mxCell>
        <mxCell id="85vyCIxWiE6cIkOSBBJF-12" value="choisir modele telephone" style="rounded=1;whiteSpace=wrap;html=1;" parent="1" vertex="1">
          <mxGeometry x="355" y="240" width="96" height="30" as="geometry" />
        </mxCell>
        <mxCell id="85vyCIxWiE6cIkOSBBJF-19" value="creation devis" style="rounded=1;whiteSpace=wrap;html=1;" parent="1" vertex="1">
          <mxGeometry x="530" y="340" width="110" height="30" as="geometry" />
        </mxCell>
        <mxCell id="85vyCIxWiE6cIkOSBBJF-21" value="" style="endArrow=none;html=1;rounded=0;entryX=0.5;entryY=1;entryDx=0;entryDy=0;exitX=0.5;exitY=0;exitDx=0;exitDy=0;" parent="1" source="85vyCIxWiE6cIkOSBBJF-19" target="85vyCIxWiE6cIkOSBBJF-13" edge="1">
          <mxGeometry width="50" height="50" relative="1" as="geometry">
            <mxPoint x="803" y="327" as="sourcePoint" />
            <mxPoint x="643" y="265" as="targetPoint" />
          </mxGeometry>
        </mxCell>
        <mxCell id="85vyCIxWiE6cIkOSBBJF-18" value="Renseigner e-mail" style="rounded=1;whiteSpace=wrap;html=1;" parent="1" vertex="1">
          <mxGeometry x="530" y="290" width="110" height="30" as="geometry" />
        </mxCell>
        <mxCell id="85vyCIxWiE6cIkOSBBJF-22" value="include" style="text;html=1;strokeColor=none;fillColor=none;align=center;verticalAlign=middle;whiteSpace=wrap;rounded=0;strokeWidth=1;fontSize=8;" parent="1" vertex="1">
          <mxGeometry x="310" y="240" width="40" height="20" as="geometry" />
        </mxCell>
        <mxCell id="85vyCIxWiE6cIkOSBBJF-24" value="include" style="text;html=1;strokeColor=none;fillColor=none;align=center;verticalAlign=middle;whiteSpace=wrap;rounded=0;strokeWidth=1;fontSize=8;" parent="1" vertex="1">
          <mxGeometry x="475" y="240" width="40" height="20" as="geometry" />
        </mxCell>
        <mxCell id="85vyCIxWiE6cIkOSBBJF-26" value="include" style="text;html=1;strokeColor=none;fillColor=none;align=center;verticalAlign=middle;whiteSpace=wrap;rounded=0;strokeWidth=1;fontSize=8;" parent="1" vertex="1">
          <mxGeometry x="580" y="270" width="40" height="20" as="geometry" />
        </mxCell>
        <mxCell id="85vyCIxWiE6cIkOSBBJF-27" value="include" style="text;html=1;strokeColor=none;fillColor=none;align=center;verticalAlign=middle;whiteSpace=wrap;rounded=0;strokeWidth=1;fontSize=8;" parent="1" vertex="1">
          <mxGeometry x="580" y="320" width="40" height="20" as="geometry" />
        </mxCell>
        <mxCell id="85vyCIxWiE6cIkOSBBJF-11" value="choisir marque telephone" style="rounded=1;whiteSpace=wrap;html=1;" parent="1" vertex="1">
          <mxGeometry x="200" y="240" width="96" height="30" as="geometry" />
        </mxCell>
        <mxCell id="85vyCIxWiE6cIkOSBBJF-29" value="créer&lt;br&gt;marque" style="rounded=1;whiteSpace=wrap;html=1;" parent="1" vertex="1">
          <mxGeometry x="422" y="450" width="96" height="30" as="geometry" />
        </mxCell>
        <mxCell id="85vyCIxWiE6cIkOSBBJF-30" value="" style="endArrow=none;html=1;rounded=0;entryX=1;entryY=0.5;entryDx=0;entryDy=0;exitX=0;exitY=0.3333333333333333;exitDx=0;exitDy=0;exitPerimeter=0;" parent="1" source="85vyCIxWiE6cIkOSBBJF-2" target="85vyCIxWiE6cIkOSBBJF-29" edge="1">
          <mxGeometry width="50" height="50" relative="1" as="geometry">
            <mxPoint x="720" y="327" as="sourcePoint" />
            <mxPoint x="650" y="365" as="targetPoint" />
          </mxGeometry>
        </mxCell>
        <mxCell id="85vyCIxWiE6cIkOSBBJF-32" value="créer type de reparation" style="rounded=1;whiteSpace=wrap;html=1;" parent="1" vertex="1">
          <mxGeometry x="415" y="610" width="96" height="30" as="geometry" />
        </mxCell>
        <mxCell id="85vyCIxWiE6cIkOSBBJF-33" value="include" style="text;html=1;strokeColor=none;fillColor=none;align=center;verticalAlign=middle;whiteSpace=wrap;rounded=0;strokeWidth=1;fontSize=8;" parent="1" vertex="1">
          <mxGeometry x="540" y="400" width="40" height="20" as="geometry" />
        </mxCell>
        <mxCell id="85vyCIxWiE6cIkOSBBJF-34" value="" style="endArrow=none;html=1;rounded=0;entryX=0;entryY=0;entryDx=0;entryDy=0;exitX=0.5;exitY=0;exitDx=0;exitDy=0;" parent="1" source="85vyCIxWiE6cIkOSBBJF-32" target="85vyCIxWiE6cIkOSBBJF-35" edge="1">
          <mxGeometry width="50" height="50" relative="1" as="geometry">
            <mxPoint x="72" y="337" as="sourcePoint" />
            <mxPoint x="132" y="265" as="targetPoint" />
          </mxGeometry>
        </mxCell>
        <mxCell id="85vyCIxWiE6cIkOSBBJF-31" value="créer&lt;br&gt;modéle" style="rounded=1;whiteSpace=wrap;html=1;" parent="1" vertex="1">
          <mxGeometry x="422" y="500" width="96" height="30" as="geometry" />
        </mxCell>
        <mxCell id="85vyCIxWiE6cIkOSBBJF-35" value="include" style="text;html=1;strokeColor=none;fillColor=none;align=center;verticalAlign=middle;whiteSpace=wrap;rounded=0;strokeWidth=1;fontSize=8;" parent="1" vertex="1">
          <mxGeometry x="466" y="480" width="40" height="20" as="geometry" />
        </mxCell>
        <mxCell id="85vyCIxWiE6cIkOSBBJF-36" value="include" style="text;html=1;strokeColor=none;fillColor=none;align=center;verticalAlign=middle;whiteSpace=wrap;rounded=0;strokeWidth=1;fontSize=8;" parent="1" vertex="1">
          <mxGeometry x="432" y="575" width="40" height="20" as="geometry" />
        </mxCell>
        <mxCell id="85vyCIxWiE6cIkOSBBJF-38" value="gerer stock&lt;br&gt;piéce" style="rounded=1;whiteSpace=wrap;html=1;" parent="1" vertex="1">
          <mxGeometry x="212" y="500" width="66" height="30" as="geometry" />
        </mxCell>
        <mxCell id="85vyCIxWiE6cIkOSBBJF-39" value="" style="endArrow=none;html=1;rounded=0;entryX=1;entryY=0.5;entryDx=0;entryDy=0;exitX=0;exitY=0.5;exitDx=0;exitDy=0;" parent="1" source="85vyCIxWiE6cIkOSBBJF-37" target="85vyCIxWiE6cIkOSBBJF-38" edge="1">
          <mxGeometry width="50" height="50" relative="1" as="geometry">
            <mxPoint x="642" y="327" as="sourcePoint" />
            <mxPoint x="528" y="475" as="targetPoint" />
          </mxGeometry>
        </mxCell>
        <mxCell id="85vyCIxWiE6cIkOSBBJF-40" value="include" style="text;html=1;strokeColor=none;fillColor=none;align=center;verticalAlign=middle;whiteSpace=wrap;rounded=0;strokeWidth=1;fontSize=8;" parent="1" vertex="1">
          <mxGeometry x="385" y="500" width="40" height="20" as="geometry" />
        </mxCell>
        <mxCell id="85vyCIxWiE6cIkOSBBJF-41" value="" style="endArrow=none;html=1;rounded=0;entryX=1;entryY=0.5;entryDx=0;entryDy=0;exitX=0;exitY=0.5;exitDx=0;exitDy=0;" parent="1" source="85vyCIxWiE6cIkOSBBJF-31" target="85vyCIxWiE6cIkOSBBJF-37" edge="1">
          <mxGeometry width="50" height="50" relative="1" as="geometry">
            <mxPoint x="422" y="515" as="sourcePoint" />
            <mxPoint x="248" y="515" as="targetPoint" />
          </mxGeometry>
        </mxCell>
        <mxCell id="85vyCIxWiE6cIkOSBBJF-37" value="créer&lt;br&gt;piéce" style="rounded=1;whiteSpace=wrap;html=1;" parent="1" vertex="1">
          <mxGeometry x="322" y="500" width="53" height="30" as="geometry" />
        </mxCell>
        <mxCell id="85vyCIxWiE6cIkOSBBJF-42" value="include" style="text;html=1;strokeColor=none;fillColor=none;align=center;verticalAlign=middle;whiteSpace=wrap;rounded=0;strokeWidth=1;fontSize=8;" parent="1" vertex="1">
          <mxGeometry x="278" y="500" width="40" height="20" as="geometry" />
        </mxCell>
        <mxCell id="85vyCIxWiE6cIkOSBBJF-43" value="supprimer&lt;br&gt;piéce" style="rounded=1;whiteSpace=wrap;html=1;" parent="1" vertex="1">
          <mxGeometry x="312" y="555" width="73" height="30" as="geometry" />
        </mxCell>
        <mxCell id="85vyCIxWiE6cIkOSBBJF-44" value="" style="endArrow=none;html=1;rounded=0;entryX=0.5;entryY=0;entryDx=0;entryDy=0;exitX=0.5;exitY=1;exitDx=0;exitDy=0;" parent="1" source="85vyCIxWiE6cIkOSBBJF-37" target="85vyCIxWiE6cIkOSBBJF-43" edge="1">
          <mxGeometry width="50" height="50" relative="1" as="geometry">
            <mxPoint x="72" y="360" as="sourcePoint" />
            <mxPoint x="462" y="365" as="targetPoint" />
          </mxGeometry>
        </mxCell>
        <mxCell id="85vyCIxWiE6cIkOSBBJF-45" value="supprimer&amp;nbsp;type de reparation" style="rounded=1;whiteSpace=wrap;html=1;" parent="1" vertex="1">
          <mxGeometry x="285" y="610" width="96" height="30" as="geometry" />
        </mxCell>
        <mxCell id="85vyCIxWiE6cIkOSBBJF-46" value="" style="endArrow=none;html=1;rounded=0;entryX=1;entryY=0.5;entryDx=0;entryDy=0;exitX=0;exitY=0.5;exitDx=0;exitDy=0;" parent="1" source="85vyCIxWiE6cIkOSBBJF-32" target="85vyCIxWiE6cIkOSBBJF-45" edge="1">
          <mxGeometry width="50" height="50" relative="1" as="geometry">
            <mxPoint x="473" y="620" as="sourcePoint" />
            <mxPoint x="473" y="450" as="targetPoint" />
          </mxGeometry>
        </mxCell>
        <mxCell id="85vyCIxWiE6cIkOSBBJF-47" value="include" style="text;html=1;strokeColor=none;fillColor=none;align=center;verticalAlign=middle;whiteSpace=wrap;rounded=0;strokeWidth=1;fontSize=8;" parent="1" vertex="1">
          <mxGeometry x="378" y="610" width="40" height="20" as="geometry" />
        </mxCell>
        <mxCell id="85vyCIxWiE6cIkOSBBJF-49" value="supprimer modéle" style="rounded=1;whiteSpace=wrap;html=1;" parent="1" vertex="1">
          <mxGeometry x="556" y="500" width="58" height="30" as="geometry" />
        </mxCell>
        <mxCell id="85vyCIxWiE6cIkOSBBJF-50" value="" style="endArrow=none;html=1;rounded=0;entryX=1;entryY=0.5;entryDx=0;entryDy=0;exitX=0;exitY=0.5;exitDx=0;exitDy=0;" parent="1" source="85vyCIxWiE6cIkOSBBJF-49" target="85vyCIxWiE6cIkOSBBJF-31" edge="1">
          <mxGeometry width="50" height="50" relative="1" as="geometry">
            <mxPoint x="720" y="327" as="sourcePoint" />
            <mxPoint x="528" y="475" as="targetPoint" />
          </mxGeometry>
        </mxCell>
        <mxCell id="85vyCIxWiE6cIkOSBBJF-51" value="include" style="text;html=1;strokeColor=none;fillColor=none;align=center;verticalAlign=middle;whiteSpace=wrap;rounded=0;strokeWidth=1;fontSize=8;" parent="1" vertex="1">
          <mxGeometry x="518" y="500" width="40" height="20" as="geometry" />
        </mxCell>
        <mxCell id="85vyCIxWiE6cIkOSBBJF-52" value="supprimer marque" style="rounded=1;whiteSpace=wrap;html=1;" parent="1" vertex="1">
          <mxGeometry x="322" y="450" width="58" height="30" as="geometry" />
        </mxCell>
        <mxCell id="85vyCIxWiE6cIkOSBBJF-53" value="include" style="text;html=1;strokeColor=none;fillColor=none;align=center;verticalAlign=middle;whiteSpace=wrap;rounded=0;strokeWidth=1;fontSize=8;" parent="1" vertex="1">
          <mxGeometry x="382" y="446" width="40" height="20" as="geometry" />
        </mxCell>
        <mxCell id="85vyCIxWiE6cIkOSBBJF-54" value="" style="endArrow=none;html=1;rounded=0;entryX=1;entryY=0.5;entryDx=0;entryDy=0;exitX=0;exitY=0.5;exitDx=0;exitDy=0;" parent="1" source="85vyCIxWiE6cIkOSBBJF-29" target="85vyCIxWiE6cIkOSBBJF-52" edge="1">
          <mxGeometry width="50" height="50" relative="1" as="geometry">
            <mxPoint x="720" y="327" as="sourcePoint" />
            <mxPoint x="528" y="475" as="targetPoint" />
          </mxGeometry>
        </mxCell>
        <mxCell id="2f1wPqIm8gUqxaYMZD4h-1" value="edit&lt;br&gt;marque" style="rounded=1;whiteSpace=wrap;html=1;" vertex="1" parent="1">
          <mxGeometry x="442.5" y="395" width="55" height="30" as="geometry" />
        </mxCell>
        <mxCell id="2f1wPqIm8gUqxaYMZD4h-2" value="" style="endArrow=none;html=1;rounded=0;entryX=0.5;entryY=1;entryDx=0;entryDy=0;exitX=0.5;exitY=0;exitDx=0;exitDy=0;" edge="1" parent="1" source="85vyCIxWiE6cIkOSBBJF-29" target="2f1wPqIm8gUqxaYMZD4h-1">
          <mxGeometry width="50" height="50" relative="1" as="geometry">
            <mxPoint x="720" y="327" as="sourcePoint" />
            <mxPoint x="528" y="475" as="targetPoint" />
          </mxGeometry>
        </mxCell>
        <mxCell id="2f1wPqIm8gUqxaYMZD4h-3" value="include" style="text;html=1;strokeColor=none;fillColor=none;align=center;verticalAlign=middle;whiteSpace=wrap;rounded=0;strokeWidth=1;fontSize=8;" vertex="1" parent="1">
          <mxGeometry x="434" y="428" width="40" height="20" as="geometry" />
        </mxCell>
        <mxCell id="2f1wPqIm8gUqxaYMZD4h-4" value="edit&lt;br&gt;piéce" style="rounded=1;whiteSpace=wrap;html=1;" vertex="1" parent="1">
          <mxGeometry x="240" y="555" width="45" height="30" as="geometry" />
        </mxCell>
        <mxCell id="2f1wPqIm8gUqxaYMZD4h-5" value="" style="endArrow=none;html=1;rounded=0;entryX=1;entryY=0;entryDx=0;entryDy=0;exitX=0;exitY=1;exitDx=0;exitDy=0;" edge="1" parent="1" source="85vyCIxWiE6cIkOSBBJF-37" target="2f1wPqIm8gUqxaYMZD4h-4">
          <mxGeometry width="50" height="50" relative="1" as="geometry">
            <mxPoint x="359" y="540" as="sourcePoint" />
            <mxPoint x="359" y="565" as="targetPoint" />
          </mxGeometry>
        </mxCell>
        <mxCell id="2f1wPqIm8gUqxaYMZD4h-6" value="include" style="text;html=1;strokeColor=none;fillColor=none;align=center;verticalAlign=middle;whiteSpace=wrap;rounded=0;strokeWidth=1;fontSize=8;" vertex="1" parent="1">
          <mxGeometry x="272" y="530" width="40" height="20" as="geometry" />
        </mxCell>
        <mxCell id="2f1wPqIm8gUqxaYMZD4h-7" value="edit&lt;br&gt;modéle" style="rounded=1;whiteSpace=wrap;html=1;" vertex="1" parent="1">
          <mxGeometry x="560" y="550" width="44.5" height="30" as="geometry" />
        </mxCell>
        <mxCell id="2f1wPqIm8gUqxaYMZD4h-9" value="" style="endArrow=none;html=1;rounded=0;entryX=0;entryY=0.5;entryDx=0;entryDy=0;exitX=1;exitY=1;exitDx=0;exitDy=0;" edge="1" parent="1" source="85vyCIxWiE6cIkOSBBJF-31" target="2f1wPqIm8gUqxaYMZD4h-7">
          <mxGeometry width="50" height="50" relative="1" as="geometry">
            <mxPoint x="332" y="540" as="sourcePoint" />
            <mxPoint x="295" y="565" as="targetPoint" />
          </mxGeometry>
        </mxCell>
        <mxCell id="2f1wPqIm8gUqxaYMZD4h-10" value="include" style="text;html=1;strokeColor=none;fillColor=none;align=center;verticalAlign=middle;whiteSpace=wrap;rounded=0;strokeWidth=1;fontSize=8;" vertex="1" parent="1">
          <mxGeometry x="506" y="540" width="40" height="20" as="geometry" />
        </mxCell>
        <mxCell id="2f1wPqIm8gUqxaYMZD4h-11" value="edit type de reparation" style="rounded=1;whiteSpace=wrap;html=1;" vertex="1" parent="1">
          <mxGeometry x="286" y="650" width="96" height="30" as="geometry" />
        </mxCell>
        <mxCell id="2f1wPqIm8gUqxaYMZD4h-12" value="" style="endArrow=none;html=1;rounded=0;entryX=0.99;entryY=0.15;entryDx=0;entryDy=0;exitX=0;exitY=1;exitDx=0;exitDy=0;entryPerimeter=0;" edge="1" parent="1" source="85vyCIxWiE6cIkOSBBJF-32" target="2f1wPqIm8gUqxaYMZD4h-11">
          <mxGeometry width="50" height="50" relative="1" as="geometry">
            <mxPoint x="524" y="500" as="sourcePoint" />
            <mxPoint x="566" y="535" as="targetPoint" />
          </mxGeometry>
        </mxCell>
        <mxCell id="2f1wPqIm8gUqxaYMZD4h-13" value="include" style="text;html=1;strokeColor=none;fillColor=none;align=center;verticalAlign=middle;whiteSpace=wrap;rounded=0;strokeWidth=1;fontSize=8;" vertex="1" parent="1">
          <mxGeometry x="392.5" y="647" width="41" height="10" as="geometry" />
        </mxCell>
      </root>
    </mxGraphModel>
  </diagram>
</mxfile>
